# xmcd
#
# Track frame offsets:
# 150
# 12596
# 23698
# 35780
# 53636
# 72250
# 83621
# 93370
# 113032
# 132273
# 145289
# 155766
# 168929
# 185182
# 195816
# 209408
#
# Disc length: 2950 seconds
#
# Revision: 0
# Processed by: cddbd v1.5.2PL0 Copyright (c) Steve Scherf et al.
# Submitted via: Axialis_AX_CDPlayer 2.6
#
DISCID=da0b8410
DTITLE=Aretha Franklin - More Hits
DYEAR=1900
DGENRE=
TTITLE0=Baby, I LOve You
TTITLE1=Since You've Been Gone (Sweet Sweet Baby)
TTITLE2=Soul Serenade
TTITLE3=Call Me
TTITLE4=Drown In My Own Tears
TTITLE5=You Send Me
TTITLE6=Good Times
TTITLE7=A Change Is Gonna Come
TTITLE8=Ain't No Way
TTITLE9=Skylark
TTITLE10=You Made Me Love You
TTITLE11=Baby, Baby, Baby
TTITLE12=Misty
TTITLE13=Don't Let Me LOose This Dream
TTITLE14=Don't Play That Song
TTITLE15=Over The Rainbow
EXTD=
EXTT0=
EXTT1=
EXTT2=
EXTT3=
EXTT4=
EXTT5=
EXTT6=
EXTT7=
EXTT8=
EXTT9=
EXTT10=
EXTT11=
EXTT12=
EXTT13=
EXTT14=
EXTT15=
PLAYORDER=
